HIERARCHY
ROOT Hips
{
  OFFSET 3.13124 94.3669 -3.18751
  CHANNELS  6 Xposition Yposition Zposition Zrotation Xrotation Yrotation
  JOINT LeftUpLeg
  {
    OFFSET 8.64259 1.95398 -2.38835
    CHANNELS 3 Zrotation Xrotation Yrotation
    JOINT LeftLeg
    {
      OFFSET 43.7702 0 0
      CHANNELS 3 Zrotation Xrotation Yrotation
      JOINT LeftFoot
      {
        OFFSET 40.6238 0 0
        CHANNELS 3 Zrotation Xrotation Yrotation
        JOINT LeftToeBase
        {
          OFFSET 12.7242 0 0
          CHANNELS 3 Zrotation Xrotation Yrotation
          End Site
          {
            OFFSET 0 0 0
          }
        }
      }
    }
  }
  JOINT RightUpLeg
  {
    OFFSET -8.2249 1.95398 -2.59336
    CHANNELS 3 Zrotation Xrotation Yrotation
    JOINT RightLeg
    {
      OFFSET 43.5653 0 0
      CHANNELS 3 Zrotation Xrotation Yrotation
      JOINT RightFoot
      {
        OFFSET 40.6238 0 0
        CHANNELS 3 Zrotation Xrotation Yrotation
        JOINT RightToeBase
        {
          OFFSET 12.7242 0 0
          CHANNELS 3 Zrotation Xrotation Yrotation
          End Site
          {
            OFFSET 0 0 0
          }
        }
      }
    }
  }
  JOINT Spine
  {
    OFFSET 0.165834 0.87714 6.61349
    CHANNELS 3 Zrotation Xrotation Yrotation
    JOINT Spine1
    {
      OFFSET 7.38962 1.71661e-005 0
      CHANNELS 3 Zrotation Xrotation Yrotation
      JOINT Spine2
      {
        OFFSET 11.9445 1.14441e-005 0
        CHANNELS 3 Zrotation Xrotation Yrotation
        JOINT Spine3
        {
          OFFSET 14.7254 4.19617e-005 0
          CHANNELS 3 Zrotation Xrotation Yrotation
          JOINT Spine4
          {
            OFFSET 10.9679 0 0
            CHANNELS 3 Zrotation Xrotation Yrotation
            JOINT RightShoulder
            {
              OFFSET 2.46616 -1.6653 3.69651
              CHANNELS 3 Zrotation Xrotation Yrotation
              JOINT RightArm
              {
                OFFSET 13.0012 0 0
                CHANNELS 3 Zrotation Xrotation Yrotation
                JOINT RightForeArm
                {
                  OFFSET 28.7848 1.52588e-005 0
                  CHANNELS 3 Zrotation Xrotation Yrotation
                  JOINT RightHand
                  {
                    OFFSET 26.5688 1.52588e-005 0
                    CHANNELS 3 Zrotation Xrotation Yrotation
                    End Site
                    {
                      OFFSET 0 0 0
                    }
                  }
                }
              }
            }
            JOINT LeftShoulder
            {
              OFFSET 2.38034 -1.29275 -3.75231
              CHANNELS 3 Zrotation Xrotation Yrotation
              JOINT LeftArm
              {
                OFFSET 16.3182 6.10352e-005 0
                CHANNELS 3 Zrotation Xrotation Yrotation
                JOINT LeftForeArm
                {
                  OFFSET 27.0901 0 0
                  CHANNELS 3 Zrotation Xrotation Yrotation
                  JOINT LeftHand
                  {
                    OFFSET 24.5451 1.52588e-005 0
                    CHANNELS 3 Zrotation Xrotation Yrotation
                    End Site
                    {
                      OFFSET 0 0 0
                    }
                  }
                }
              }
            }
            JOINT Neck
            {
              OFFSET 5.0226 -0.0266342 0
              CHANNELS 3 Zrotation Xrotation Yrotation
              JOINT Head
              {
                OFFSET 6.69363 2.86102e-005 0
                CHANNELS 3 Zrotation Xrotation Yrotation
                End Site
                {
                  OFFSET 0 0 0
                }
              }
            }
          }
        }
      }
    }
  }
}
MOTION
Frames:	6
Frame Time:	0.0333333
48.6936 91.7547 -121.649 -87.2932 -1.04974 -97.4401 -174.183 24.4061 91.6345 -23.4057 -16.2698 -4.71931 49.5236 4.37679 2.71769 28.7808 5.0425e-006 4.57155e-006 177.461 8.16301 64.8975 -42.2367 25.8207 1.37171 42.2013 9.13471 8.41098 28.7808 1.56924e-005 3.30165e-005 0.598838 6.51406 -91.9455 13.8369 0.241284 -4.61014 2.15778 0.0383536 -4.61628 -20.318 1.61435 -4.32553 -0.305355 1.61439 -4.32554 99.2265 -53.7296 -86.3502 1.05425 39.4691 19.9797 -10.0264 0.560888 -10.7279 -5.37983 -0.320008 -0.0162402 -79.1798 -6.95905 92.6564 -0.0526444 -24.0354 0.952762 165.988 67.2918 -162.653 26.7786 -3.54976 -17.5909 -5.15772 -7.46594 -33.0547 0.0987513 -3.8989 19.0327 
46.3236 92.3201 -119.349 -88.1375 -9.70593 -96.5896 -175.891 23.3286 88.2532 -22.2042 -12.3923 -2.86183 50.9973 6.90746 4.53954 28.7808 5.0425e-006 4.57155e-006 177.262 5.90108 69.2339 -41.1515 29.0326 1.67895 48.2501 11.1827 9.01894 28.7808 1.56924e-005 3.30165e-005 0.972648 6.16759 -92.137 14.541 0.903491 -4.68823 2.86182 0.696523 -4.72335 -19.6188 2.26954 -4.20148 0.393838 2.26956 -4.20147 94.7764 -52.7058 -93.0875 6.13242 39.9829 17.5266 -13.273 0.900271 -9.50447 -5.37983 -0.320008 -0.0162402 -78.6051 -6.48504 94.3542 6.27288 -27.9506 -4.65023 166.094 69.2507 -163.665 27.2316 -1.86612 -11.0815 -3.30822 -8.3899 -25.3348 -4.23955 -5.78131 13.5836 
43.8142 92.9744 -117.652 -90.2509 -16.5629 -95.3632 -176.193 20.8912 87.4082 -22.5217 -8.11043 -1.59211 52.5015 7.83029 5.11283 28.7808 5.0425e-006 4.57155e-006 176.666 2.84848 73.8286 -36.5571 28.4655 1.7393 56.5123 5.65352 3.90014 28.7808 1.56924e-005 3.30165e-005 1.2896 6.11833 -92.2889 14.6485 1.50128 -4.80992 2.96936 1.28839 -4.87114 -19.5167 2.87631 -4.13825 0.495986 2.87633 -4.13825 93.8246 -50.3387 -94.883 14.7052 39.2968 10.1301 -11.1433 0.447628 -8.5266 -5.37983 -0.320008 -0.0162402 -77.624 -5.73198 97.3347 12.6325 -30.9626 -7.37396 153.993 74.9144 -153.038 23.6619 -1.36521 -9.87276 2.34887 -9.69891 -17.5856 -12.14 -7.56004 8.69951 
41.6968 93.3459 -116.23 -90.1581 -21.7156 -94.7506 -176.414 20.3806 86.9157 -23.0378 -7.22817 -1.57251 53.7427 8.01992 5.17466 28.7808 5.0425e-006 4.57155e-006 176.701 3.90359 75.8224 -33.0797 32.7517 2.26497 60.2025 7.61572 4.75317 28.7808 1.56924e-005 3.30165e-005 1.67563 5.94989 -92.2217 14.996 2.33907 -4.46001 3.31916 2.14071 -4.55839 -19.1904 3.57058 -3.55235 0.822191 3.57056 -3.55236 91.5337 -51.1611 -98.2354 18.9604 38.5831 2.99695 -8.34162 -0.256344 -8.45064 -5.37983 -0.320008 -0.0162402 -76.8714 -4.62113 99.7216 18.0493 -34.6305 -7.51407 150.35 75.2107 -149.214 22.2942 -0.0933827 -4.39785 4.0286 -9.54343 -12.7442 -14.672 -7.71397 4.38929 
39.795 93.4207 -114.874 -90.4039 -26.0423 -93.9236 -176.256 20.1603 87.1484 -24.9784 -8.73824 -2.09883 55.7582 9.42822 5.99059 28.7808 5.0425e-006 4.57155e-006 177.363 6.72642 77.0105 -33.5606 36.8741 2.70568 59.3222 8.43277 5.35125 28.7808 1.56924e-005 3.30165e-005 2.01077 5.96503 -92.102 14.9771 3.04431 -4.26001 3.30233 2.85406 -4.38962 -19.2272 4.18324 -3.14905 0.785459 4.18323 -3.14905 89.6444 -50.8169 -101.175 23.1926 36.0952 -4.50622 -9.58626 0.0481946 -7.80568 -5.37983 -0.320008 -0.0162402 -76.141 -7.05532 101.786 25.0889 -39.8689 -6.0264 148.363 79.0024 -146.034 20.2184 -0.278274 -5.2909 7.49804 -10.0174 -5.9841 -18.5967 -8.67806 -0.0196916 
37.9327 93.4083 -113.712 -91.828 -29.8887 -92.533 -175.406 19.6445 88.4775 -28.1615 -7.58075 -1.91259 58.231 10.7329 6.6114 28.7808 5.0425e-006 4.57155e-006 177.607 7.05096 78.3087 -32.043 35.8268 2.57477 58.2196 9.26618 6.02923 28.7808 1.56924e-005 3.30165e-005 2.31798 6.14119 -92.0323 14.6488 3.66338 -4.43524 2.97489 3.46483 -4.59189 -19.5673 4.82624 -3.12974 0.445351 4.82627 -3.12973 87.2345 -49.5391 -105.171 24.7505 33.2141 -9.49451 -8.13403 -0.116407 -6.03512 -5.37983 -0.320008 -0.0162402 -74.0621 -12.7801 106.703 29.7 -46.1763 -8.81789 40.2535 84.9136 -37.8056 25.5449 -0.679458 -6.75281 9.62753 -10.4315 1.53159 -20.8641 -9.80354 -5.10731 
